<?xml version="1.0" encoding="UTF-8"?>
<svg width="20px" height="20px" viewBox="0 0 20 20" version="1.1" xmlns="http://www.w3.org/2000/svg" xmlns:xlink="http://www.w3.org/1999/xlink">
    <!-- Generator: Sketch 51.3 (57544) - http://www.bohemiancoding.com/sketch -->
    <title>logo</title>
    <desc>Created with Sketch.</desc>
    <defs></defs>
    <g id="Page-1" stroke="none" stroke-width="1" fill="none" fill-rule="evenodd">
        <g id="logo" fill="#FFFFFF">
            <path d="M10,20 C4.4771525,20 0,15.5228475 0,10 C0,4.4771525 4.4771525,0 10,0 C15.5228475,0 20,4.4771525 20,10 C20,15.5228475 15.5228475,20 10,20 Z M3.47700664,5.55912259 C2.82377873,10.7216518 2.81260256,12.8902924 3.78389931,14.6610869 C4.99446644,16.8681009 7.56757292,17.5264372 12.1164275,16.9931992 L11.8835725,15.0068008 C8.05715756,15.4553511 6.24657453,14.9921085 5.53743398,13.6992573 C4.85916647,12.4626915 4.86934536,10.487564 5.46118588,5.81018582 L3.47700664,5.55912259 Z M9.57986642,3.63518707 C8.53742828,8.01950471 9.80924622,11.4380254 12.4786562,11.8231666 C15.1692786,12.2113683 17.229728,9.25221204 17.229728,4.80081756 L15.229728,4.80081756 C15.229728,8.19809958 13.963455,10.0166833 12.764258,9.84366372 C11.5290707,9.66545149 10.7193307,7.48895058 11.5256235,4.09782037 L9.57986642,3.63518707 Z" id="Combined-Shape"></path>
        </g>
    </g>
</svg>