<?xml version="1.0" encoding="utf-8"?>
<!-- Generator: Adobe Illustrator 23.0.1, SVG Export Plug-In . SVG Version: 6.00 Build 0)  -->
<svg version="1.1" id="Layer_1" xmlns="http://www.w3.org/2000/svg" xmlns:xlink="http://www.w3.org/1999/xlink" x="0px" y="0px"
	 viewBox="0 0 306.5 306.9" style="enable-background:new 0 0 306.5 306.9;" xml:space="preserve">
<style type="text/css">
	.st0{fill:#D7A9E3;}
</style>
<g>
	<g>
		<path class="st0" d="M154.6,49.8c-0.8,0-1.3,0-2.1,0c-2.1-16.3,2.6-32.6,1-49C156.3,17.1,152.4,33.5,154.6,49.8z"/>
		<path class="st0" d="M158.1,49.9c-0.8,0-1.3,0-2.1-0.1c-1.6-16.4,3.6-32.5,2.6-48.9C160.9,17.2,156.4,33.5,158.1,49.9z"/>
		<path class="st0" d="M161.5,50.1c-0.8-0.1-1.3-0.1-2.1-0.1c-1-16.4,4.7-32.4,4.2-48.8C165.3,17.5,160.3,33.7,161.5,50.1z"/>
		<path class="st0" d="M164.9,50.4c-0.8-0.1-1.3-0.1-2.1-0.2c-0.5-16.5,5.7-32.2,5.8-48.7C169.8,17.9,164.3,33.9,164.9,50.4z"/>
		<path class="st0" d="M168.3,50.8c-0.8-0.1-1.2-0.2-2.1-0.3c0-16.5,6.7-32,7.3-48.5C174.2,18.5,168.1,34.3,168.3,50.8z"/>
		<path class="st0" d="M171.6,51.3c-0.8-0.1-1.2-0.2-2.1-0.3c0.6-16.5,7.8-31.8,8.9-48.2C178.5,19.2,172,34.8,171.6,51.3z"/>
		<path class="st0" d="M174.8,51.9c-0.8-0.2-1.2-0.2-2.1-0.4c1.1-16.4,8.8-31.5,10.4-47.9C182.8,20,175.7,35.4,174.8,51.9z"/>
		<path class="st0" d="M178,52.6c-0.8-0.2-1.2-0.3-2-0.5c1.6-16.4,9.8-31.2,11.9-47.5C187,21,179.5,36.2,178,52.6z"/>
		<path class="st0" d="M181.2,53.3c-0.8-0.2-1.2-0.3-2-0.5c2.1-16.3,10.8-30.9,13.4-47.1C191.1,22.1,183.1,37,181.2,53.3z"/>
		<path class="st0" d="M184.3,54.2c-0.8-0.2-1.2-0.4-2-0.6C184.9,37.4,194,23.1,197.2,7C195.2,23.3,186.8,38,184.3,54.2z"/>
		<path class="st0" d="M187.3,55.2c-0.8-0.3-1.2-0.4-2-0.7c3.2-16.2,12.7-30.1,16.4-46.2C199.3,24.7,190.4,39,187.3,55.2z"/>
		<path class="st0" d="M190.4,56.3c-0.8-0.3-1.2-0.4-2-0.7c3.7-16.1,13.6-29.7,17.8-45.7C203.3,26.1,193.9,40.2,190.4,56.3z"/>
		<path class="st0" d="M193.4,57.5c-0.8-0.3-1.2-0.5-1.9-0.8c4.2-15.9,14.6-29.3,19.3-45.1C207.2,27.7,197.4,41.5,193.4,57.5z"/>
		<path class="st0" d="M196.3,58.7c-0.8-0.3-1.2-0.5-1.9-0.8c4.7-15.8,15.5-28.8,20.7-44.4C211.1,29.4,200.8,42.9,196.3,58.7z"/>
		<path class="st0" d="M199.2,60.1c-0.8-0.4-1.1-0.5-1.9-0.9c5.1-15.6,16.4-28.3,22-43.8C214.9,31.2,204.2,44.4,199.2,60.1z"/>
		<path class="st0" d="M202,61.5c-0.7-0.4-1.1-0.6-1.9-1c5.6-15.5,17.2-27.8,23.4-43.1C218.6,33.2,207.5,46,202,61.5z"/>
		<path class="st0" d="M204.8,63c-0.7-0.4-1.1-0.6-1.8-1c6.1-15.3,18.1-27.3,24.7-42.3C222.2,35.2,210.8,47.7,204.8,63z"/>
		<path class="st0" d="M207.6,64.6c-0.7-0.4-1.1-0.6-1.8-1.1c6.6-15.1,18.9-26.7,26-41.6C225.8,37.4,214,49.5,207.6,64.6z"/>
		<path class="st0" d="M210.3,66.3c-0.7-0.5-1.1-0.7-1.8-1.1c7-14.9,19.7-26.1,27.3-40.7C229.3,39.6,217.2,51.4,210.3,66.3z"/>
		<path class="st0" d="M212.9,68.1c-0.7-0.5-1-0.7-1.7-1.2c7.5-14.7,20.5-25.5,28.5-39.9C232.8,42,220.2,53.4,212.9,68.1z"/>
		<path class="st0" d="M215.4,69.9c-0.7-0.5-1-0.7-1.7-1.2c7.9-14.4,21.3-24.8,29.7-39C236.1,44.5,223.2,55.4,215.4,69.9z"/>
		<path class="st0" d="M218,71.9c-0.7-0.5-1-0.8-1.7-1.3c8.4-14.2,22-24.2,30.9-38.1C239.4,47,226.2,57.6,218,71.9z"/>
		<path class="st0" d="M220.4,73.8c-0.6-0.5-1-0.8-1.6-1.3c8.8-13.9,22.8-23.5,32-37.1C242.6,49.7,229.1,59.9,220.4,73.8z"/>
		<path class="st0" d="M222.8,75.9c-0.6-0.6-0.9-0.8-1.6-1.4c9.2-13.6,23.5-22.8,33.1-36.1C245.7,52.4,231.9,62.2,222.8,75.9z"/>
		<path class="st0" d="M225.1,78.1c-0.6-0.6-0.9-0.9-1.5-1.4c9.6-13.4,24.1-22.1,34.2-35.1C248.7,55.3,234.6,64.6,225.1,78.1z"/>
		<path class="st0" d="M227.4,80.3c-0.6-0.6-0.9-0.9-1.5-1.5c10-13.1,24.8-21.3,35.3-34C251.7,58.2,237.3,67.1,227.4,80.3z"/>
		<path class="st0" d="M229.5,82.5c-0.6-0.6-0.9-0.9-1.4-1.5c10.4-12.8,25.4-20.6,36.3-33C254.5,61.3,239.8,69.7,229.5,82.5z"/>
		<path class="st0" d="M231.6,84.9c-0.6-0.6-0.8-0.9-1.4-1.6c10.8-12.4,26.1-19.8,37.3-31.8C257.3,64.4,242.3,72.4,231.6,84.9z"/>
		<path class="st0" d="M233.7,87.3c-0.5-0.6-0.8-1-1.3-1.6c11.2-12.1,26.6-19,38.2-30.7C259.9,67.6,244.7,75.1,233.7,87.3z"/>
		<path class="st0" d="M235.6,89.8c-0.5-0.7-0.8-1-1.3-1.6c11.5-11.8,27.2-18.2,39.1-29.5C262.5,70.8,247.1,77.9,235.6,89.8z"/>
		<path class="st0" d="M237.5,92.3c-0.5-0.7-0.7-1-1.2-1.7c11.9-11.4,27.8-17.3,40-28.3C264.9,74.2,249.3,80.8,237.5,92.3z"/>
		<path class="st0" d="M239.3,94.9c-0.5-0.7-0.7-1-1.2-1.7c12.2-11,28.3-16.5,40.9-27.1C267.3,77.6,251.5,83.8,239.3,94.9z"/>
		<path class="st0" d="M241.1,97.5c-0.5-0.7-0.7-1.1-1.1-1.8c12.6-10.6,28.8-15.6,41.7-25.8C269.5,81.1,253.5,86.8,241.1,97.5z"/>
		<path class="st0" d="M242.7,100.2c-0.4-0.7-0.7-1.1-1.1-1.8c12.9-10.3,29.2-14.7,42.4-24.5C271.6,84.7,255.5,89.9,242.7,100.2z"/>
		<path class="st0" d="M244.3,103c-0.4-0.7-0.6-1.1-1-1.8c13.2-9.9,29.7-13.8,43.2-23.2C273.7,88.4,257.4,93,244.3,103z"/>
		<path class="st0" d="M245.8,105.8c-0.4-0.7-0.6-1.1-1-1.9c13.5-9.4,30.1-12.9,43.9-21.9C275.6,92.1,259.2,96.3,245.8,105.8z"/>
		<path class="st0" d="M247.2,108.7c-0.4-0.8-0.6-1.1-0.9-1.9c13.8-9,30.5-11.9,44.5-20.5C277.4,95.9,260.9,99.5,247.2,108.7z"/>
		<path class="st0" d="M248.5,111.6c-0.3-0.8-0.5-1.1-0.9-1.9c14.1-8.6,30.8-11,45.1-19.1C279.1,99.7,262.5,102.9,248.5,111.6z"/>
		<path class="st0" d="M249.7,114.5c-0.3-0.8-0.5-1.2-0.8-1.9c14.3-8.1,31.1-10,45.7-17.7C280.7,103.7,264,106.3,249.7,114.5z"/>
		<path class="st0" d="M250.8,117.5c-0.3-0.8-0.4-1.2-0.7-2c14.6-7.7,31.4-9,46.2-16.2C282.1,107.6,265.3,109.7,250.8,117.5z"/>
		<path class="st0" d="M251.9,120.6c-0.3-0.8-0.4-1.2-0.7-2c14.8-7.2,31.7-8.1,46.7-14.8C283.5,111.7,266.6,113.2,251.9,120.6z"/>
		<path class="st0" d="M252.8,123.7c-0.2-0.8-0.4-1.2-0.6-2c15-6.8,31.9-7,47.2-13.3C284.7,115.7,267.8,116.8,252.8,123.7z"/>
		<path class="st0" d="M253.7,126.8c-0.2-0.8-0.3-1.2-0.5-2c15.2-6.3,32.2-6,47.6-11.8C285.8,119.9,268.8,120.4,253.7,126.8z"/>
		<path class="st0" d="M254.4,129.9c-0.2-0.8-0.3-1.2-0.5-2c15.4-5.8,32.3-5,47.9-10.3C286.7,124.1,269.8,124,254.4,129.9z"/>
		<path class="st0" d="M255.1,133.1c-0.2-0.8-0.3-1.2-0.4-2.1c15.6-5.3,32.5-4,48.2-8.7C287.5,128.3,270.6,127.7,255.1,133.1z"/>
		<path class="st0" d="M255.6,136.4c-0.1-0.8-0.2-1.2-0.4-2.1c15.8-4.8,32.6-2.9,48.5-7.2C288.2,132.6,271.4,131.4,255.6,136.4z"/>
		<path class="st0" d="M256.1,139.7c-0.1-0.8-0.2-1.2-0.3-2.1c15.9-4.3,32.7-1.9,48.7-5.6C288.8,136.9,272,135.2,256.1,139.7z"/>
		<path class="st0" d="M256.5,143c-0.1-0.8-0.1-1.3-0.2-2.1c16-3.8,32.7-0.8,48.8-4.1C289.2,141.3,272.4,139.1,256.5,143z"/>
		<path class="st0" d="M256.7,146.3c-0.1-0.8-0.1-1.3-0.2-2.1c16.1-3.3,32.7,0.2,49-2.5C289.5,145.7,272.8,142.9,256.7,146.3z"/>
		<path class="st0" d="M256.8,149.7c0-0.8-0.1-1.3-0.1-2.1c16.2-2.7,32.7,1.3,49-0.9C289.7,150.1,273,146.8,256.8,149.7z"/>
		<path class="st0" d="M256.9,153.7c0-0.8,0-1.3,0-2.1c16.3-2.2,32.6,2.3,49,0.7C289.7,155.2,273.2,151.4,256.9,153.7z"/>
		<path class="st0" d="M256.8,157.4c0-0.8,0-1.3,0.1-2.1c16.4-1.7,32.5,3.4,49,2.2C289.5,159.9,273.2,155.6,256.8,157.4z"/>
		<path class="st0" d="M256.7,160.8c0-0.8,0.1-1.3,0.1-2.1c16.4-1.2,32.4,4.4,48.9,3.8C289.3,164.4,273.1,159.5,256.7,160.8z"/>
		<path class="st0" d="M256.4,164.2c0.1-0.8,0.1-1.3,0.2-2.1c16.5-0.6,32.3,5.5,48.7,5.4C288.9,168.9,272.8,163.5,256.4,164.2z"/>
		<path class="st0" d="M256,167.6c0.1-0.8,0.2-1.3,0.3-2.1c16.5-0.1,32.1,6.5,48.5,6.9C288.4,173.3,272.5,167.4,256,167.6z"/>
		<path class="st0" d="M255.6,170.9c0.1-0.8,0.2-1.2,0.3-2.1c16.5,0.4,31.8,7.5,48.3,8.5C287.7,177.6,272,171.2,255.6,170.9z"/>
		<path class="st0" d="M255,174.2c0.2-0.8,0.2-1.2,0.4-2.1c16.4,1,31.6,8.5,48,10C286.9,181.9,271.4,175,255,174.2z"/>
		<path class="st0" d="M254.3,177.4c0.2-0.8,0.3-1.2,0.5-2.1c16.4,1.5,31.3,9.5,47.6,11.6C286,186.1,270.7,178.7,254.3,177.4z"/>
		<path class="st0" d="M253.6,180.6c0.2-0.8,0.3-1.2,0.5-2c16.3,2,31,10.5,47.2,13.1C284.9,190.3,269.9,182.4,253.6,180.6z"/>
		<path class="st0" d="M252.7,183.7c0.2-0.8,0.3-1.2,0.6-2c16.3,2.5,30.6,11.5,46.8,14.6C283.7,194.4,269,186.1,252.7,183.7z"/>
		<path class="st0" d="M251.7,186.8c0.3-0.8,0.4-1.2,0.6-2c16.2,3,30.2,12.5,46.3,16C282.4,198.5,267.9,189.7,251.7,186.8z"/>
		<path class="st0" d="M250.7,189.8c0.3-0.8,0.4-1.2,0.7-2c16.1,3.5,29.8,13.4,45.8,17.5C280.9,202.5,266.8,193.2,250.7,189.8z"/>
		<path class="st0" d="M249.5,192.8c0.3-0.8,0.5-1.2,0.8-2c16,4,29.4,14.3,45.2,18.9C279.4,206.4,265.5,196.7,249.5,192.8z"/>
		<path class="st0" d="M248.3,195.8c0.3-0.8,0.5-1.2,0.8-1.9c15.8,4.5,28.9,15.3,44.6,20.3C277.7,210.3,264.2,200.2,248.3,195.8z"/>
		<path class="st0" d="M247,198.7c0.4-0.8,0.5-1.1,0.9-1.9c15.7,5,28.5,16.1,44,21.7C275.9,214.1,262.7,203.5,247,198.7z"/>
		<path class="st0" d="M245.5,201.5c0.4-0.7,0.6-1.1,0.9-1.9c15.5,5.5,27.9,17,43.3,23.1C274,217.8,261.1,206.9,245.5,201.5z"/>
		<path class="st0" d="M244,204.3c0.4-0.7,0.6-1.1,1-1.8c15.3,6,27.4,17.9,42.5,24.4C272,221.5,259.4,210.2,244,204.3z"/>
		<path class="st0" d="M242.5,207.1c0.4-0.7,0.6-1.1,1.1-1.8c15.2,6.5,26.8,18.7,41.8,25.7C269.9,225.1,257.7,213.4,242.5,207.1z"/>
		<path class="st0" d="M240.8,209.8c0.4-0.7,0.7-1.1,1.1-1.8c14.9,6.9,26.2,19.5,40.9,26.9C267.6,228.7,255.8,216.6,240.8,209.8z"/>
		<path class="st0" d="M239.1,212.4c0.5-0.7,0.7-1,1.2-1.7c14.7,7.4,25.6,20.3,40.1,28.2C265.3,232.1,253.8,219.7,239.1,212.4z"/>
		<path class="st0" d="M237.2,215c0.5-0.7,0.7-1,1.2-1.7c14.5,7.8,25,21.1,39.2,29.4C262.9,235.5,251.8,222.7,237.2,215z"/>
		<path class="st0" d="M235.3,217.5c0.5-0.7,0.8-1,1.3-1.7c14.2,8.3,24.4,21.8,38.3,30.6C260.3,238.8,249.6,225.6,235.3,217.5z"/>
		<path class="st0" d="M233.4,220c0.5-0.7,0.8-1,1.3-1.6c14,8.7,23.7,22.6,37.4,31.7C257.7,242,247.4,228.5,233.4,220z"/>
		<path class="st0" d="M231.3,222.4c0.5-0.6,0.8-1,1.4-1.6c13.7,9.1,23,23.3,36.4,32.9C255,245.1,245.1,231.4,231.3,222.4z"/>
		<path class="st0" d="M229.2,224.7c0.6-0.6,0.9-0.9,1.4-1.5c13.4,9.5,22.3,24,35.4,33.9C252.1,248.2,242.7,234.1,229.2,224.7z"/>
		<path class="st0" d="M227,227c0.6-0.6,0.9-0.9,1.5-1.5c13.1,9.9,21.5,24.6,34.3,35C249.2,251.1,240.2,236.8,227,227z"/>
		<path class="st0" d="M224.7,229.2c0.6-0.6,0.9-0.9,1.5-1.5c12.8,10.3,20.8,25.3,33.2,36C246.2,254,237.6,239.4,224.7,229.2z"/>
		<path class="st0" d="M222.4,231.3c0.6-0.6,0.9-0.8,1.6-1.4c12.5,10.7,20,25.9,32.1,37C243.1,256.8,235,241.9,222.4,231.3z"/>
		<path class="st0" d="M220,233.4c0.6-0.5,1-0.8,1.6-1.4c12.2,11.1,19.2,26.5,31,38C239.9,259.4,232.3,244.3,220,233.4z"/>
		<path class="st0" d="M217.5,235.3c0.7-0.5,1-0.8,1.6-1.3c11.8,11.4,18.4,27.1,29.8,38.9C236.7,262,229.5,246.7,217.5,235.3z"/>
		<path class="st0" d="M215,237.3c0.7-0.5,1-0.8,1.7-1.3c11.5,11.8,17.5,27.6,28.6,39.8C233.3,264.5,226.6,249,215,237.3z"/>
		<path class="st0" d="M212.5,239.1c0.7-0.5,1-0.7,1.7-1.2c11.1,12.1,16.7,28.1,27.4,40.7C229.9,266.9,223.7,251.1,212.5,239.1z"/>
		<path class="st0" d="M209.8,240.8c0.7-0.5,1.1-0.7,1.8-1.2c10.7,12.5,15.8,28.6,26.1,41.5C226.4,269.1,220.7,253.2,209.8,240.8z"
			/>
		<path class="st0" d="M207.1,242.5c0.7-0.4,1.1-0.7,1.8-1.1c10.4,12.8,14.9,29.1,24.8,42.3C222.9,271.3,217.6,255.2,207.1,242.5z"
			/>
		<path class="st0" d="M204.4,244.1c0.7-0.4,1.1-0.6,1.8-1c10,13.1,14,29.6,23.5,43C219.2,273.4,214.5,257.1,204.4,244.1z"/>
		<path class="st0" d="M201.6,245.6c0.7-0.4,1.1-0.6,1.9-1c9.5,13.4,13.1,30,22.2,43.7C215.5,275.3,211.3,258.9,201.6,245.6z"/>
		<path class="st0" d="M198.7,247c0.8-0.4,1.1-0.6,1.9-0.9c9.1,13.7,12.2,30.4,20.8,44.4C211.8,277.2,208,260.6,198.7,247z"/>
		<path class="st0" d="M195.8,248.4c0.8-0.3,1.1-0.5,1.9-0.9c8.7,14,11.2,30.7,19.4,45C207.9,278.9,204.7,262.3,195.8,248.4z"/>
		<path class="st0" d="M192.9,249.6c0.8-0.3,1.2-0.5,1.9-0.8c8.3,14.3,10.3,31.1,18,45.6C204,280.5,201.3,263.8,192.9,249.6z"/>
		<path class="st0" d="M189.9,250.8c0.8-0.3,1.2-0.5,2-0.8c7.8,14.5,9.3,31.4,16.6,46.1C200.1,282,197.9,265.2,189.9,250.8z"/>
		<path class="st0" d="M186.9,251.8c0.8-0.3,1.2-0.4,2-0.7c7.3,14.7,8.3,31.6,15.1,46.6C196,283.3,194.4,266.5,186.9,251.8z"/>
		<path class="st0" d="M183.8,252.8c0.8-0.3,1.2-0.4,2-0.6c6.9,15,7.3,31.9,13.7,47.1C192,284.6,190.8,267.7,183.8,252.8z"/>
		<path class="st0" d="M180.7,253.7c0.8-0.2,1.2-0.3,2-0.6c6.4,15.2,6.3,32.1,12.2,47.5C187.8,285.7,187.2,268.8,180.7,253.7z"/>
		<path class="st0" d="M177.5,254.4c0.8-0.2,1.2-0.3,2-0.5c5.9,15.4,5.3,32.3,10.7,47.8C183.7,286.7,183.6,269.7,177.5,254.4z"/>
		<path class="st0" d="M174.4,255.1c0.8-0.2,1.2-0.3,2.1-0.4c5.4,15.5,4.2,32.4,9.1,48.2C179.5,287.5,179.9,270.6,174.4,255.1z"/>
		<path class="st0" d="M171.1,255.7c0.8-0.1,1.2-0.2,2.1-0.4c4.9,15.7,3.2,32.6,7.6,48.4C175.2,288.3,176.2,271.4,171.1,255.7z"/>
		<path class="st0" d="M167.9,256.2c0.8-0.1,1.2-0.2,2.1-0.3c4.4,15.9,2.2,32.6,6,48.6C170.9,288.9,172.4,272,167.9,256.2z"/>
		<path class="st0" d="M164.6,256.6c0.8-0.1,1.3-0.1,2.1-0.2c3.9,16,1.1,32.7,4.5,48.8C166.5,289.3,168.6,272.5,164.6,256.6z"/>
		<path class="st0" d="M161.2,256.8c0.8-0.1,1.3-0.1,2.1-0.2c3.4,16.1,0.1,32.7,2.9,48.9C162.1,289.6,164.7,272.9,161.2,256.8z"/>
		<path class="st0" d="M157.8,257c0.8,0,1.3-0.1,2.1-0.1c2.9,16.2-1,32.7,1.3,49C157.7,289.8,160.9,273.2,157.8,257z"/>
		<path class="st0" d="M154,257.1c0.8,0,1.3,0,2.1,0c2.3,16.3-2.1,32.7-0.3,49C152.8,289.9,156.5,273.3,154,257.1z"/>
		<path class="st0" d="M150.2,257c0.8,0,1.3,0,2.1,0c1.8,16.4-3.1,32.6-1.8,49C148,289.7,152.2,273.4,150.2,257z"/>
		<path class="st0" d="M146.7,256.9c0.8,0,1.3,0.1,2.1,0.1c1.3,16.4-4.2,32.5-3.4,48.9C143.4,289.5,148.2,273.3,146.7,256.9z"/>
		<path class="st0" d="M143.3,256.7c0.8,0.1,1.3,0.1,2.1,0.2c0.8,16.5-5.2,32.3-5,48.8C138.9,289.2,144.2,273.1,143.3,256.7z"/>
		<path class="st0" d="M139.9,256.3c0.8,0.1,1.3,0.1,2.1,0.2c0.2,16.5-6.2,32.1-6.6,48.6C134.5,288.7,140.3,272.8,139.9,256.3z"/>
		<path class="st0" d="M136.6,255.9c0.8,0.1,1.2,0.2,2.1,0.3c-0.3,16.5-7.3,31.9-8.1,48.3C130.1,288.1,136.4,272.3,136.6,255.9z"/>
		<path class="st0" d="M133.3,255.3c0.8,0.1,1.2,0.2,2.1,0.4c-0.8,16.4-8.3,31.7-9.7,48.1C125.9,287.3,132.6,271.8,133.3,255.3z"/>
		<path class="st0" d="M130.1,254.7c0.8,0.2,1.2,0.3,2.1,0.4c-1.3,16.4-9.3,31.4-11.2,47.7C121.6,286.4,128.9,271.1,130.1,254.7z"/>
		<path class="st0" d="M126.9,253.9c0.8,0.2,1.2,0.3,2,0.5c-1.9,16.4-10.3,31.1-12.7,47.3C117.4,285.4,125.2,270.3,126.9,253.9z"/>
		<path class="st0" d="M123.8,253.1c0.8,0.2,1.2,0.3,2,0.6c-2.4,16.3-11.3,30.7-14.2,46.9C113.3,284.2,121.5,269.4,123.8,253.1z"/>
		<path class="st0" d="M120.7,252.2c0.8,0.3,1.2,0.4,2,0.6c-2.9,16.2-12.2,30.3-15.7,46.4C109.2,282.9,117.9,268.4,120.7,252.2z"/>
		<path class="st0" d="M117.6,251.1c0.8,0.3,1.2,0.4,2,0.7c-3.4,16.1-13.2,29.9-17.1,45.9C105.2,281.5,114.4,267.3,117.6,251.1z"/>
		<path class="st0" d="M114.6,250c0.8,0.3,1.2,0.5,2,0.8c-3.9,16-14.1,29.5-18.6,45.4C101.3,280,110.9,266,114.6,250z"/>
		<path class="st0" d="M111.7,248.8c0.8,0.3,1.2,0.5,1.9,0.8c-4.4,15.9-15,29.1-20,44.8C97.4,278.3,107.4,264.7,111.7,248.8z"/>
		<path class="st0" d="M108.8,247.5c0.8,0.3,1.1,0.5,1.9,0.9c-4.9,15.7-15.9,28.6-21.4,44.1C93.5,276.6,104,263.2,108.8,247.5z"/>
		<path class="st0" d="M105.9,246.1c0.8,0.4,1.1,0.6,1.9,0.9c-5.4,15.6-16.8,28.1-22.7,43.4C89.8,274.7,100.6,261.7,105.9,246.1z"/>
		<path class="st0" d="M103.1,244.6c0.7,0.4,1.1,0.6,1.9,1c-5.9,15.4-17.7,27.5-24,42.7C86.1,272.7,97.3,260,103.1,244.6z"/>
		<path class="st0" d="M100.3,243.1c0.7,0.4,1.1,0.6,1.8,1c-6.3,15.2-18.5,27-25.4,41.9C82.5,270.6,94.1,258.3,100.3,243.1z"/>
		<path class="st0" d="M97.6,241.4c0.7,0.4,1.1,0.7,1.8,1.1c-6.8,15-19.3,26.4-26.6,41.2C78.9,268.4,90.9,256.5,97.6,241.4z"/>
		<path class="st0" d="M94.9,239.7c0.7,0.5,1.1,0.7,1.8,1.2c-7.3,14.8-20.1,25.8-27.9,40.3C75.4,266.1,87.8,254.5,94.9,239.7z"/>
		<path class="st0" d="M92.3,237.9c0.7,0.5,1,0.7,1.7,1.2c-7.7,14.6-20.9,25.2-29.1,39.4C72,263.7,84.8,252.5,92.3,237.9z"/>
		<path class="st0" d="M89.8,236c0.7,0.5,1,0.8,1.7,1.3c-8.2,14.3-21.7,24.5-30.3,38.5C68.7,261.1,81.8,250.4,89.8,236z"/>
		<path class="st0" d="M87.3,234c0.7,0.5,1,0.8,1.6,1.3c-8.6,14.1-22.4,23.8-31.5,37.6C65.5,258.5,78.9,248.2,87.3,234z"/>
		<path class="st0" d="M84.9,232c0.6,0.5,1,0.8,1.6,1.4c-9,13.8-23.1,23.2-32.6,36.6C62.3,255.8,76,245.9,84.9,232z"/>
		<path class="st0" d="M82.6,229.9c0.6,0.6,0.9,0.8,1.6,1.4c-9.4,13.5-23.8,22.4-33.7,35.6C59.3,253,73.3,243.5,82.6,229.9z"/>
		<path class="st0" d="M80.3,227.7c0.6,0.6,0.9,0.9,1.5,1.5C72,242.4,57.3,250.9,47,263.8C56.3,250.1,70.6,241,80.3,227.7z"/>
		<path class="st0" d="M78.1,225.5c0.6,0.6,0.9,0.9,1.5,1.5c-10.2,12.9-25.1,21-35.8,33.5C53.4,247.1,68,238.5,78.1,225.5z"/>
		<path class="st0" d="M75.9,223.2c0.6,0.6,0.9,0.9,1.4,1.5c-10.6,12.6-25.8,20.2-36.8,32.4C50.6,244.1,65.4,235.8,75.9,223.2z"/>
		<path class="st0" d="M73.8,220.8c0.5,0.6,0.8,1,1.4,1.6c-11,12.3-26.4,19.4-37.7,31.3C47.9,240.9,63,233.1,73.8,220.8z"/>
		<path class="st0" d="M71.8,218.3c0.5,0.7,0.8,1,1.3,1.6c-11.4,11.9-26.9,18.6-38.7,30.1C45.3,237.7,60.6,230.4,71.8,218.3z"/>
		<path class="st0" d="M69.9,215.8c0.5,0.7,0.8,1,1.3,1.7c-11.7,11.6-27.5,17.7-39.6,28.9C42.8,234.4,58.3,227.5,69.9,215.8z"/>
		<path class="st0" d="M68.1,213.3c0.5,0.7,0.7,1,1.2,1.7c-12.1,11.2-28,16.9-40.4,27.7C40.4,231,56.1,224.6,68.1,213.3z"/>
		<path class="st0" d="M66.3,210.7c0.5,0.7,0.7,1,1.2,1.7c-12.4,10.8-28.5,16-41.3,26.4C38.1,227.5,54,221.6,66.3,210.7z"/>
		<path class="st0" d="M64.6,208c0.4,0.7,0.7,1.1,1.1,1.8c-12.7,10.5-29,15.2-42.1,25.2C35.9,223.9,52,218.5,64.6,208z"/>
		<path class="st0" d="M63,205.3c0.4,0.7,0.6,1.1,1.1,1.8c-13,10.1-29.4,14.3-42.8,23.9C33.8,220.3,50,215.4,63,205.3z"/>
		<path class="st0" d="M61.5,202.5c0.4,0.7,0.6,1.1,1,1.8c-13.3,9.7-29.9,13.3-43.5,22.5C31.9,216.6,48.2,212.2,61.5,202.5z"/>
		<path class="st0" d="M60,199.6c0.4,0.7,0.6,1.1,0.9,1.9c-13.6,9.2-30.3,12.4-44.2,21.2C30,212.9,46.5,209,60,199.6z"/>
		<path class="st0" d="M58.7,196.8c0.4,0.8,0.5,1.1,0.9,1.9c-13.9,8.8-30.6,11.5-44.8,19.8C28.2,209.1,44.8,205.7,58.7,196.8z"/>
		<path class="st0" d="M57.4,193.8c0.3,0.8,0.5,1.2,0.8,1.9c-14.2,8.4-31,10.5-45.4,18.4C26.6,205.2,43.3,202.3,57.4,193.8z"/>
		<path class="st0" d="M56.2,190.9c0.3,0.8,0.5,1.2,0.8,2c-14.4,7.9-31.3,9.5-46,17C25.1,201.2,41.9,198.9,56.2,190.9z"/>
		<path class="st0" d="M55.1,187.8c0.3,0.8,0.4,1.2,0.7,2c-14.7,7.5-31.6,8.6-46.5,15.5C23.7,197.2,40.5,195.4,55.1,187.8z"/>
		<path class="st0" d="M54.1,184.8c0.3,0.8,0.4,1.2,0.6,2c-14.9,7-31.8,7.6-47,14C22.4,193.2,39.3,191.9,54.1,184.8z"/>
		<path class="st0" d="M53.2,181.7c0.2,0.8,0.3,1.2,0.6,2c-15.1,6.5-32.1,6.5-47.4,12.5C21.3,189.1,38.2,188.3,53.2,181.7z"/>
		<path class="st0" d="M52.4,178.5c0.2,0.8,0.3,1.2,0.5,2c-15.3,6-32.2,5.5-47.8,11C20.3,184.9,37.2,184.7,52.4,178.5z"/>
		<path class="st0" d="M51.7,175.3c0.2,0.8,0.3,1.2,0.5,2.1c-15.5,5.6-32.4,4.5-48.1,9.5C19.4,180.7,36.3,181,51.7,175.3z"/>
		<path class="st0" d="M51.1,172.1c0.2,0.8,0.2,1.2,0.4,2.1c-15.7,5.1-32.5,3.5-48.4,8C18.6,176.4,35.5,177.3,51.1,172.1z"/>
		<path class="st0" d="M50.6,168.9c0.1,0.8,0.2,1.2,0.3,2.1c-15.8,4.5-32.6,2.4-48.6,6.4C18,172.1,34.8,173.5,50.6,168.9z"/>
		<path class="st0" d="M50.2,165.6c0.1,0.8,0.2,1.3,0.3,2.1c-16,4-32.7,1.4-48.8,4.9C17.5,167.8,34.3,169.7,50.2,165.6z"/>
		<path class="st0" d="M49.9,162.2c0.1,0.8,0.1,1.3,0.2,2.1c-16.1,3.5-32.7,0.3-48.9,3.3C17.1,163.4,33.9,165.9,49.9,162.2z"/>
		<path class="st0" d="M49.7,158.9c0,0.8,0.1,1.3,0.1,2.1c-16.2,3-32.7-0.7-49,1.7C16.9,159,33.6,162,49.7,158.9z"/>
		<path class="st0" d="M49.6,155.1c0,0.8,0,1.3,0.1,2.1c-16.3,2.5-32.7-1.8-49,0.1C16.8,154.2,33.4,157.8,49.6,155.1z"/>
		<path class="st0" d="M49.7,151.3c0,0.8,0,1.3,0,2.1c-16.4,2-32.6-2.8-49-1.4C16.9,149.3,33.3,153.4,49.7,151.3z"/>
		<path class="st0" d="M49.8,147.8c0,0.8-0.1,1.3-0.1,2.1c-16.4,1.4-32.5-3.9-48.9-3C17.1,144.7,33.4,149.3,49.8,147.8z"/>
		<path class="st0" d="M50,144.3c-0.1,0.8-0.1,1.3-0.2,2.1c-16.4,0.9-32.3-4.9-48.8-4.6C17.4,140.2,33.5,145.4,50,144.3z"/>
		<path class="st0" d="M50.3,140.9c-0.1,0.8-0.1,1.3-0.2,2.1c-16.5,0.4-32.2-6-48.6-6.2C17.9,135.8,33.8,141.5,50.3,140.9z"/>
		<path class="st0" d="M50.7,137.6c-0.1,0.8-0.2,1.2-0.3,2.1c-16.5-0.2-32-7-48.4-7.7C18.5,131.4,34.2,137.6,50.7,137.6z"/>
		<path class="st0" d="M51.2,134.3c-0.1,0.8-0.2,1.2-0.4,2.1c-16.5-0.7-31.7-8-48.1-9.3C19.2,127.1,34.8,133.8,51.2,134.3z"/>
		<path class="st0" d="M51.8,131.1c-0.2,0.8-0.3,1.2-0.4,2.1c-16.4-1.2-31.4-9-47.8-10.8C20.1,122.9,35.4,130,51.8,131.1z"/>
		<path class="st0" d="M52.6,127.9c-0.2,0.8-0.3,1.2-0.5,2c-16.4-1.7-31.1-10-47.4-12.3C21.1,118.7,36.2,126.3,52.6,127.9z"/>
		<path class="st0" d="M53.4,124.8c-0.2,0.8-0.3,1.2-0.5,2c-16.3-2.3-30.8-11-47-13.8C22.2,114.5,37.1,122.6,53.4,124.8z"/>
		<path class="st0" d="M54.3,121.6c-0.2,0.8-0.4,1.2-0.6,2c-16.2-2.8-30.4-12-46.6-15.3C23.5,110.4,38,119,54.3,121.6z"/>
		<path class="st0" d="M55.3,118.6c-0.3,0.8-0.4,1.2-0.7,2c-16.1-3.3-30-12.9-46.1-16.8C24.8,106.4,39.1,115.4,55.3,118.6z"/>
		<path class="st0" d="M56.4,115.6c-0.3,0.8-0.4,1.2-0.7,2c-16-3.8-29.6-13.9-45.5-18.2C26.3,102.4,40.3,111.9,56.4,115.6z"/>
		<path class="st0" d="M57.6,112.6c-0.3,0.8-0.5,1.2-0.8,1.9c-15.9-4.3-29.2-14.8-44.9-19.6C27.9,98.5,41.7,108.4,57.6,112.6z"/>
		<path class="st0" d="M58.9,109.7c-0.3,0.8-0.5,1.1-0.9,1.9c-15.8-4.8-28.7-15.7-44.3-21C29.7,94.7,43.1,105,58.9,109.7z"/>
		<path class="st0" d="M60.2,106.8c-0.4,0.8-0.6,1.1-0.9,1.9c-15.6-5.3-28.2-16.6-43.6-22.4C31.5,90.9,44.6,101.6,60.2,106.8z"/>
		<path class="st0" d="M61.7,104c-0.4,0.7-0.6,1.1-1,1.9c-15.4-5.8-27.7-17.4-42.9-23.7C33.5,87.2,46.2,98.3,61.7,104z"/>
		<path class="st0" d="M63.2,101.2c-0.4,0.7-0.6,1.1-1,1.8C47,96.8,35.1,84.7,20.1,78C35.6,83.5,47.9,95.1,63.2,101.2z"/>
		<path class="st0" d="M64.9,98.4c-0.4,0.7-0.7,1.1-1.1,1.8c-15-6.7-26.5-19.1-41.4-26.3C37.7,80,49.8,91.9,64.9,98.4z"/>
		<path class="st0" d="M66.6,95.8c-0.5,0.7-0.7,1.1-1.1,1.8C50.6,90.4,39.5,77.6,24.9,70C40,76.5,51.7,88.8,66.6,95.8z"/>
		<path class="st0" d="M68.4,93.2c-0.5,0.7-0.7,1-1.2,1.7c-14.6-7.6-25.3-20.7-39.7-28.8C42.4,73.1,53.7,85.7,68.4,93.2z"/>
		<path class="st0" d="M70.2,90.6c-0.5,0.7-0.7,1-1.2,1.7c-14.4-8-24.7-21.5-38.8-30C44.9,69.7,55.8,82.7,70.2,90.6z"/>
		<path class="st0" d="M72.2,88.1c-0.5,0.7-0.8,1-1.3,1.6c-14.1-8.5-24-22.2-37.8-31.2C47.5,66.5,58,79.8,72.2,88.1z"/>
		<path class="st0" d="M74.2,85.7c-0.5,0.6-0.8,1-1.3,1.6C59,78.4,49.5,64.4,36,55C50.2,63.3,60.2,76.9,74.2,85.7z"/>
		<path class="st0" d="M76.3,83.3c-0.6,0.6-0.8,0.9-1.4,1.6C61.3,75.6,52.2,61.3,39,51.5C53,60.2,62.6,74.1,76.3,83.3z"/>
		<path class="st0" d="M78.4,81c-0.6,0.6-0.9,0.9-1.4,1.5c-13.3-9.7-21.9-24.3-34.8-34.5C55.8,57.2,65.1,71.4,78.4,81z"/>
		<path class="st0" d="M80.6,78.8c-0.6,0.6-0.9,0.9-1.5,1.5c-13-10.1-21.1-25-33.8-35.5C58.8,54.3,67.6,68.8,80.6,78.8z"/>
		<path class="st0" d="M82.9,76.6c-0.6,0.6-0.9,0.9-1.5,1.4C68.7,67.5,61,52.5,48.7,41.5C61.8,51.5,70.2,66.2,82.9,76.6z"/>
		<path class="st0" d="M85.3,74.5c-0.6,0.6-0.9,0.8-1.6,1.4C71.4,65,64.1,49.7,52.2,38.4C65,48.8,72.9,63.7,85.3,74.5z"/>
		<path class="st0" d="M87.7,72.5c-0.6,0.5-1,0.8-1.6,1.3c-12-11.3-18.8-26.8-30.4-38.4C68.2,46.1,75.6,61.4,87.7,72.5z"/>
		<path class="st0" d="M90.2,70.6c-0.7,0.5-1,0.8-1.7,1.3c-11.7-11.6-18-27.3-29.2-39.4C71.5,43.6,78.5,59,90.2,70.6z"/>
		<path class="st0" d="M92.8,68.7c-0.7,0.5-1,0.7-1.7,1.2C79.8,58,73.9,42,63.1,29.7C74.9,41.2,81.4,56.8,92.8,68.7z"/>
		<path class="st0" d="M95.4,66.9c-0.7,0.5-1,0.7-1.7,1.2C82.7,55.8,77.4,39.7,66.9,27C78.3,38.9,84.3,54.7,95.4,66.9z"/>
		<path class="st0" d="M98,65.2c-0.7,0.5-1.1,0.7-1.8,1.1C85.7,53.7,80.9,37.4,70.8,24.5C81.9,36.6,87.4,52.6,98,65.2z"/>
		<path class="st0" d="M100.7,63.6c-0.7,0.4-1.1,0.6-1.8,1.1C88.8,51.7,84.5,35.3,74.8,22C85.5,34.5,90.5,50.7,100.7,63.6z"/>
		<path class="st0" d="M103.5,62c-0.7,0.4-1.1,0.6-1.8,1c-9.8-13.3-13.6-29.8-22.9-43.4C89.1,32.5,93.7,48.8,103.5,62z"/>
		<path class="st0" d="M106.3,60.6c-0.7,0.4-1.1,0.6-1.9,1c-9.3-13.6-12.6-30.2-21.5-44C92.9,30.6,96.9,47.1,106.3,60.6z"/>
		<path class="st0" d="M109.2,59.2c-0.8,0.4-1.1,0.5-1.9,0.9c-8.9-13.8-11.7-30.5-20.1-44.7C96.7,28.8,100.2,45.4,109.2,59.2z"/>
		<path class="st0" d="M112.1,57.9c-0.8,0.3-1.2,0.5-1.9,0.8c-8.5-14.1-10.8-30.9-18.7-45.3C100.5,27.2,103.5,43.8,112.1,57.9z"/>
		<path class="st0" d="M115.1,56.7c-0.8,0.3-1.2,0.5-1.9,0.8c-8-14.4-9.8-31.2-17.3-45.9C104.5,25.6,106.9,42.4,115.1,56.7z"/>
		<path class="st0" d="M118.1,55.6c-0.8,0.3-1.2,0.4-2,0.7c-7.6-14.6-8.8-31.5-15.9-46.4C108.5,24.2,110.4,41,118.1,55.6z"/>
		<path class="st0" d="M121.2,54.6c-0.8,0.3-1.2,0.4-2,0.7c-7.1-14.9-7.8-31.8-14.4-46.9C112.5,22.9,113.9,39.8,121.2,54.6z"/>
		<path class="st0" d="M124.2,53.6c-0.8,0.2-1.2,0.4-2,0.6c-6.6-15.1-6.8-32-12.9-47.3C116.6,21.7,117.5,38.6,124.2,53.6z"/>
		<path class="st0" d="M127.4,52.8c-0.8,0.2-1.2,0.3-2,0.5c-6.2-15.3-5.8-32.2-11.4-47.7C120.7,20.7,121.1,37.6,127.4,52.8z"/>
		<path class="st0" d="M130.6,52.1c-0.8,0.2-1.2,0.3-2,0.5c-5.7-15.5-4.8-32.4-9.9-48C124.9,19.8,124.8,36.7,130.6,52.1z"/>
		<path class="st0" d="M133.8,51.5c-0.8,0.2-1.2,0.2-2.1,0.4c-5.2-15.6-3.7-32.5-8.4-48.3C129.2,19,128.5,35.9,133.8,51.5z"/>
		<path class="st0" d="M137,50.9c-0.8,0.1-1.2,0.2-2.1,0.3c-4.7-15.8-2.7-32.6-6.8-48.5C133.5,18.3,132.2,35.2,137,50.9z"/>
		<path class="st0" d="M140.3,50.5c-0.8,0.1-1.2,0.2-2.1,0.3c-4.2-15.9-1.6-32.7-5.3-48.7C137.8,17.8,136,34.6,140.3,50.5z"/>
		<path class="st0" d="M143.6,50.2c-0.8,0.1-1.3,0.1-2.1,0.2c-3.7-16.1-0.6-32.7-3.7-48.9C142.2,17.4,139.8,34.1,143.6,50.2z"/>
		<path class="st0" d="M147,49.9c-0.8,0.1-1.3,0.1-2.1,0.1c-3.1-16.2,0.5-32.7-2.1-49C146.6,17.1,143.7,33.8,147,49.9z"/>
		<path class="st0" d="M150.5,49.8c-0.8,0-1.3,0-2.1,0.1c-2.6-16.3,1.5-32.7-0.5-49C151.2,17,147.8,33.6,150.5,49.8z"/>
		<path class="st0" d="M154.6,49.8c-0.8,0-1.3,0-2.1,0c-2.1-16.3,2.6-32.6,1-49C156.3,17.1,152.4,33.5,154.6,49.8z"/>
	</g>
</g>
</svg>
