<svg id="Layer_1" data-name="Layer 1" xmlns="http://www.w3.org/2000/svg" viewBox="0 0 305.21 305.21"><defs><style>.cls-1{fill:#f5e1a4;}</style></defs><title>gravity-4</title><path class="cls-1" d="M154.58,49.83h-2.1c-2.09-16.33,2.58-32.61,1.05-49C156.31,17.06,152.35,33.52,154.58,49.83Z" transform="translate(-0.65 -0.83)"/><path class="cls-1" d="M158.07,49.9l-2.1-.06c-1.56-16.4,3.63-32.52,2.63-48.95C160.86,17.21,156.37,33.53,158.07,49.9Z" transform="translate(-0.65 -0.83)"/><path class="cls-1" d="M161.51,50.08l-2.1-.13c-1-16.44,4.68-32.38,4.21-48.84C165.35,17.49,160.34,33.66,161.51,50.08Z" transform="translate(-0.65 -0.83)"/><path class="cls-1" d="M164.91,50.37l-2.09-.2c-.5-16.46,5.71-32.21,5.77-48.68C169.79,17.92,164.26,33.92,164.91,50.37Z" transform="translate(-0.65 -0.83)"/><path class="cls-1" d="M168.26,50.76l-2.08-.27c0-16.46,6.75-32,7.34-48.46C174.19,18.49,168.15,34.3,168.26,50.76Z" transform="translate(-0.65 -0.83)"/><path class="cls-1" d="M171.56,51.26l-2.07-.34c.56-16.46,7.77-31.78,8.89-48.2C178.52,19.19,172,34.8,171.56,51.26Z" transform="translate(-0.65 -0.83)"/><path class="cls-1" d="M174.8,51.86l-2.06-.41c1.08-16.43,8.78-31.51,10.42-47.89C182.78,20,175.74,35.42,174.8,51.86Z" transform="translate(-0.65 -0.83)"/><path class="cls-1" d="M178,52.55,176,52.09c1.61-16.4,9.79-31.22,12-47.54C187,21,179.46,36.16,178,52.55Z" transform="translate(-0.65 -0.83)"/><path class="cls-1" d="M181.16,53.35l-2-.54c2.12-16.33,10.77-30.89,13.45-47.13C191.15,22.09,183.14,37,181.16,53.35Z" transform="translate(-0.65 -0.83)"/><path class="cls-1" d="M184.27,54.24l-2-.6C184.91,37.39,194,23.11,197.2,7,195.25,23.31,186.78,38,184.27,54.24Z" transform="translate(-0.65 -0.83)"/><path class="cls-1" d="M187.35,55.22l-2-.66c3.15-16.16,12.7-30.15,16.4-46.19C199.29,24.66,190.36,39,187.35,55.22Z" transform="translate(-0.65 -0.83)"/><path class="cls-1" d="M190.38,56.3l-2-.72c3.66-16.06,13.64-29.74,17.85-45.65C203.28,26.13,193.9,40.22,190.38,56.3Z" transform="translate(-0.65 -0.83)"/><path class="cls-1" d="M193.37,57.47l-2-.78c4.16-15.94,14.57-29.3,19.27-45.07C207.21,27.71,197.39,41.51,193.37,57.47Z" transform="translate(-0.65 -0.83)"/><path class="cls-1" d="M196.31,58.73l-1.93-.84c4.66-15.8,15.48-28.83,20.67-44.45C211.07,29.42,200.83,42.9,196.31,58.73Z" transform="translate(-0.65 -0.83)"/><path class="cls-1" d="M199.2,60.08l-1.9-.91c5.15-15.64,16.37-28.32,22-43.78C214.86,31.24,204.21,44.4,199.2,60.08Z" transform="translate(-0.65 -0.83)"/><path class="cls-1" d="M202,61.51l-1.87-1c5.63-15.48,17.24-27.81,23.39-43.08C218.59,33.18,207.53,46,202,61.51Z" transform="translate(-0.65 -0.83)"/><path class="cls-1" d="M204.83,63,203,62c6.11-15.29,18.09-27.26,24.71-42.33C222.25,35.22,210.8,47.69,204.83,63Z" transform="translate(-0.65 -0.83)"/><path class="cls-1" d="M207.57,64.64l-1.81-1.08c6.58-15.1,18.92-26.69,26-41.55C225.83,37.37,214,49.49,207.57,64.64Z" transform="translate(-0.65 -0.83)"/><path class="cls-1" d="M210.25,66.32l-1.77-1.13c7-14.89,19.73-26.1,27.26-40.74C229.35,39.63,217.15,51.38,210.25,66.32Z" transform="translate(-0.65 -0.83)"/><path class="cls-1" d="M212.88,68.09l-1.74-1.19c7.49-14.67,20.52-25.48,28.5-39.88C232.78,42,220.23,53.36,212.88,68.09Z" transform="translate(-0.65 -0.83)"/><path class="cls-1" d="M215.45,69.93l-1.7-1.24c7.93-14.43,21.28-24.84,29.7-39C236.14,44.46,223.25,55.43,215.45,69.93Z" transform="translate(-0.65 -0.83)"/><path class="cls-1" d="M218,71.85l-1.66-1.29c8.37-14.18,22-24.18,30.88-38.07C239.41,47,226.19,57.6,218,71.85Z" transform="translate(-0.65 -0.83)"/><path class="cls-1" d="M220.4,73.85l-1.62-1.34c8.8-13.92,22.76-23.5,32-37.11C242.61,49.68,229.07,59.85,220.4,73.85Z" transform="translate(-0.65 -0.83)"/><path class="cls-1" d="M222.78,75.92l-1.57-1.39c9.21-13.65,23.46-22.8,33.13-36.12C245.71,52.44,231.88,62.19,222.78,75.92Z" transform="translate(-0.65 -0.83)"/><path class="cls-1" d="M225.1,78.06l-1.53-1.44c9.62-13.36,24.14-22.07,34.21-35.09C248.73,55.29,234.61,64.62,225.1,78.06Z" transform="translate(-0.65 -0.83)"/><path class="cls-1" d="M227.35,80.27l-1.49-1.48c10-13.07,24.81-21.33,35.27-34C251.67,58.23,237.26,67.12,227.35,80.27Z" transform="translate(-0.65 -0.83)"/><path class="cls-1" d="M229.53,82.55,228.09,81c10.42-12.75,25.44-20.57,36.28-32.95C254.51,61.25,239.84,69.71,229.53,82.55Z" transform="translate(-0.65 -0.83)"/><path class="cls-1" d="M231.65,84.89l-1.4-1.57c10.8-12.43,26.05-19.78,37.27-31.84C257.25,64.37,242.33,72.37,231.65,84.89Z" transform="translate(-0.65 -0.83)"/><path class="cls-1" d="M233.69,87.3l-1.35-1.61c11.17-12.1,26.64-19,38.21-30.69C259.9,67.56,244.75,75.11,233.69,87.3Z" transform="translate(-0.65 -0.83)"/><path class="cls-1" d="M235.65,89.77l-1.3-1.65C245.89,76.37,261.56,70,273.48,58.61,262.46,70.84,247.08,77.92,235.65,89.77Z" transform="translate(-0.65 -0.83)"/><path class="cls-1" d="M237.54,92.3l-1.25-1.68c11.89-11.4,27.75-17.33,40-28.31C264.91,74.2,249.32,80.81,237.54,92.3Z" transform="translate(-0.65 -0.83)"/><path class="cls-1" d="M239.35,94.89l-1.2-1.72c12.24-11,28.27-16.47,40.86-27.07C267.26,77.63,251.48,83.77,239.35,94.89Z" transform="translate(-0.65 -0.83)"/><path class="cls-1" d="M241.08,97.54l-1.14-1.76C252.5,85.13,268.7,80.18,281.61,70,269.51,81.14,253.55,86.79,241.08,97.54Z" transform="translate(-0.65 -0.83)"/><path class="cls-1" d="M242.73,100.25l-1.09-1.8c12.89-10.26,29.23-14.71,42.45-24.52C271.65,84.73,255.52,89.88,242.73,100.25Z" transform="translate(-0.65 -0.83)"/><path class="cls-1" d="M244.3,103l-1-1.83c13.19-9.85,29.66-13.8,43.17-23.2C273.68,88.38,257.4,93,244.3,103Z" transform="translate(-0.65 -0.83)"/><path class="cls-1" d="M245.78,105.81l-1-1.86c13.49-9.44,30.07-12.88,43.87-21.86C275.6,92.1,259.19,96.25,245.78,105.81Z" transform="translate(-0.65 -0.83)"/><path class="cls-1" d="M247.18,108.67l-.92-1.89c13.78-9,30.46-11.94,44.53-20.49C277.41,95.89,260.88,99.53,247.18,108.67Z" transform="translate(-0.65 -0.83)"/><path class="cls-1" d="M248.49,111.58l-.86-1.92c14.06-8.59,30.82-11,45.15-19.1C279.1,99.74,262.46,102.87,248.49,111.58Z" transform="translate(-0.65 -0.83)"/><path class="cls-1" d="M249.72,114.53l-.8-1.94c14.31-8.15,31.14-10,45.71-17.68C280.68,103.66,264,106.26,249.72,114.53Z" transform="translate(-0.65 -0.83)"/><path class="cls-1" d="M250.85,117.53l-.74-2c14.56-7.69,31.44-9,46.25-16.24C282.14,107.63,265.33,109.71,250.85,117.53Z" transform="translate(-0.65 -0.83)"/><path class="cls-1" d="M251.89,120.57l-.68-2c14.8-7.23,31.71-8,46.74-14.78C283.47,111.66,266.61,113.21,251.89,120.57Z" transform="translate(-0.65 -0.83)"/><path class="cls-1" d="M252.83,123.65l-.61-2c15-6.77,32-7.05,47.18-13.3C284.68,115.75,267.78,116.76,252.83,123.65Z" transform="translate(-0.65 -0.83)"/><path class="cls-1" d="M253.68,126.78l-.55-2c15.23-6.28,32.16-6,47.58-11.79C285.77,119.88,268.84,120.37,253.68,126.78Z" transform="translate(-0.65 -0.83)"/><path class="cls-1" d="M254.44,129.94l-.49-2c15.42-5.8,32.33-5,47.93-10.28C286.72,124.07,269.79,124,254.44,129.94Z" transform="translate(-0.65 -0.83)"/><path class="cls-1" d="M255.09,133.15l-.42-2.06c15.59-5.3,32.47-4,48.23-8.75C287.55,128.3,270.63,127.71,255.09,133.15Z" transform="translate(-0.65 -0.83)"/><path class="cls-1" d="M255.65,136.39l-.36-2.07c15.76-4.8,32.59-2.94,48.49-7.21C288.24,132.58,271.35,131.45,255.65,136.39Z" transform="translate(-0.65 -0.83)"/><path class="cls-1" d="M256.1,139.66l-.29-2.08c15.9-4.29,32.67-1.89,48.69-5.64C288.8,136.91,272,135.23,256.1,139.66Z" transform="translate(-0.65 -0.83)"/><path class="cls-1" d="M256.45,143l-.22-2.08c16-3.79,32.71-.85,48.85-4.08C289.22,141.27,272.44,139.05,256.45,143Z" transform="translate(-0.65 -0.83)"/><path class="cls-1" d="M256.7,146.32l-.15-2.1c16.14-3.26,32.71.21,48.95-2.5C289.51,145.67,272.81,142.91,256.7,146.32Z" transform="translate(-0.65 -0.83)"/><path class="cls-1" d="M256.84,149.73l-.09-2.1c16.24-2.74,32.7,1.27,49-.92C289.65,150.14,273.05,146.85,256.84,149.73Z" transform="translate(-0.65 -0.83)"/><path class="cls-1" d="M256.87,153.75l0-2.1c16.32-2.22,32.64,2.31,49,.65C289.65,155.21,273.16,151.39,256.87,153.75Z" transform="translate(-0.65 -0.83)"/><path class="cls-1" d="M256.82,157.39l.05-2.1c16.38-1.69,32.54,3.37,49,2.23C289.54,159.91,273.18,155.55,256.82,157.39Z" transform="translate(-0.65 -0.83)"/><path class="cls-1" d="M256.66,160.84l.12-2.1c16.43-1.16,32.42,4.41,48.87,3.81C289.29,164.41,273.07,159.53,256.66,160.84Z" transform="translate(-0.65 -0.83)"/><path class="cls-1" d="M256.4,164.24l.19-2.09c16.46-.63,32.26,5.46,48.72,5.39C288.89,168.87,272.85,163.47,256.4,164.24Z" transform="translate(-0.65 -0.83)"/><path class="cls-1" d="M256,167.61l.25-2.08c16.47-.11,32.06,6.49,48.52,6.94C288.36,173.28,272.5,167.36,256,167.61Z" transform="translate(-0.65 -0.83)"/><path class="cls-1" d="M255.57,170.93l.32-2.08c16.46.43,31.84,7.52,48.27,8.5C287.69,177.63,272,171.21,255.57,170.93Z" transform="translate(-0.65 -0.83)"/><path class="cls-1" d="M255,174.18l.38-2.07c16.44,1,31.58,8.54,48,10C286.89,181.9,271.44,175,255,174.18Z" transform="translate(-0.65 -0.83)"/><path class="cls-1" d="M254.32,177.39l.46-2c16.4,1.47,31.29,9.53,47.63,11.56C286,186.13,270.73,178.72,254.32,177.39Z" transform="translate(-0.65 -0.83)"/><path class="cls-1" d="M253.55,180.55l.52-2c16.35,2,31,10.53,47.24,13.07C284.89,190.3,269.91,182.41,253.55,180.55Z" transform="translate(-0.65 -0.83)"/><path class="cls-1" d="M252.69,183.68l.58-2c16.27,2.52,30.63,11.51,46.8,14.57C283.7,194.41,269,186.05,252.69,183.68Z" transform="translate(-0.65 -0.83)"/><path class="cls-1" d="M251.73,186.77l.64-2c16.19,3,30.25,12.46,46.32,16C282.38,198.47,267.93,189.65,251.73,186.77Z" transform="translate(-0.65 -0.83)"/><path class="cls-1" d="M250.67,189.81l.71-2c16.08,3.54,29.84,13.41,45.79,17.49C281,202.47,266.78,193.2,250.67,189.81Z" transform="translate(-0.65 -0.83)"/><path class="cls-1" d="M249.52,192.81l.77-2c16,4,29.41,14.34,45.22,18.92C279.39,206.41,265.52,196.71,249.52,192.81Z" transform="translate(-0.65 -0.83)"/><path class="cls-1" d="M248.29,195.76l.83-1.93c15.83,4.54,28.94,15.25,44.6,20.32C277.71,210.29,264.15,200.15,248.29,195.76Z" transform="translate(-0.65 -0.83)"/><path class="cls-1" d="M247,198.66l.89-1.9c15.68,5,28.45,16.14,44,21.7C275.92,214.1,262.68,203.55,247,198.66Z" transform="translate(-0.65 -0.83)"/><path class="cls-1" d="M245.55,201.52l.94-1.88c15.52,5.51,27.94,17,43.26,23.05C274,217.85,261.11,206.89,245.55,201.52Z" transform="translate(-0.65 -0.83)"/><path class="cls-1" d="M244.05,204.32l1-1.84c15.35,6,27.4,17.87,42.53,24.37C272,221.52,259.44,210.17,244.05,204.32Z" transform="translate(-0.65 -0.83)"/><path class="cls-1" d="M242.47,207.07l1.06-1.81c15.15,6.46,26.83,18.71,41.75,25.67C269.87,225.13,257.67,213.39,242.47,207.07Z" transform="translate(-0.65 -0.83)"/><path class="cls-1" d="M240.8,209.77l1.12-1.78c14.94,6.92,26.25,19.53,40.94,26.95C267.64,228.66,255.8,216.55,240.8,209.77Z" transform="translate(-0.65 -0.83)"/><path class="cls-1" d="M239.06,212.41l1.17-1.74C255,218,265.86,231,280.33,238.85,265.3,232.11,253.84,219.65,239.06,212.41Z" transform="translate(-0.65 -0.83)"/><path class="cls-1" d="M237.23,215l1.22-1.71c14.5,7.83,25,21.1,39.22,29.41C262.86,235.49,251.79,222.68,237.23,215Z" transform="translate(-0.65 -0.83)"/><path class="cls-1" d="M235.33,217.52l1.27-1.67c14.25,8.26,24.35,21.85,38.31,30.58C260.32,238.78,249.64,225.65,235.33,217.52Z" transform="translate(-0.65 -0.83)"/><path class="cls-1" d="M233.35,220l1.33-1.63c14,8.69,23.67,22.58,37.35,31.73C257.68,242,247.41,228.54,233.35,220Z" transform="translate(-0.65 -0.83)"/><path class="cls-1" d="M231.3,222.38l1.37-1.59c13.72,9.11,23,23.29,36.38,32.86C255,245.13,245.09,231.36,231.3,222.38Z" transform="translate(-0.65 -0.83)"/><path class="cls-1" d="M229.18,224.71l1.42-1.54c13.44,9.52,22.26,24,35.36,33.94C252.13,248.17,242.69,234.11,229.18,224.71Z" transform="translate(-0.65 -0.83)"/><path class="cls-1" d="M227,227l1.47-1.5c13.14,9.93,21.52,24.64,34.31,35C249.21,251.12,240.21,236.79,227,227Z" transform="translate(-0.65 -0.83)"/><path class="cls-1" d="M224.72,229.18l1.52-1.46c12.83,10.33,20.76,25.29,33.23,36C246.21,254,237.64,239.38,224.72,229.18Z" transform="translate(-0.65 -0.83)"/><path class="cls-1" d="M222.39,231.31,224,229.9c12.51,10.71,20,25.9,32.12,37C243.11,256.76,235,241.9,222.39,231.31Z" transform="translate(-0.65 -0.83)"/><path class="cls-1" d="M220,233.37l1.6-1.37c12.18,11.09,19.19,26.5,31,38C239.94,259.43,232.28,244.34,220,233.37Z" transform="translate(-0.65 -0.83)"/><path class="cls-1" d="M217.55,235.35l1.63-1.31c11.84,11.44,18.38,27.07,29.82,38.9C236.68,262,229.48,246.69,217.55,235.35Z" transform="translate(-0.65 -0.83)"/><path class="cls-1" d="M215,237.26l1.68-1.27c11.48,11.81,17.54,27.62,28.61,39.8C233.34,264.49,226.61,249,215,237.26Z" transform="translate(-0.65 -0.83)"/><path class="cls-1" d="M212.45,239.09l1.72-1.21C225.29,250,230.86,266,241.55,278.53,229.93,266.87,223.67,251.13,212.45,239.09Z" transform="translate(-0.65 -0.83)"/><path class="cls-1" d="M209.82,240.84l1.75-1.16c10.74,12.49,15.82,28.64,26.13,41.47C226.43,269.14,220.67,253.22,209.82,240.84Z" transform="translate(-0.65 -0.83)"/><path class="cls-1" d="M207.13,242.51l1.79-1.1c10.35,12.8,14.93,29.11,24.84,42.25C222.87,271.31,217.59,255.22,207.13,242.51Z" transform="translate(-0.65 -0.83)"/><path class="cls-1" d="M204.39,244.1l1.82-1c9.95,13.12,14,29.56,23.53,43C219.23,273.37,214.45,257.13,204.39,244.1Z" transform="translate(-0.65 -0.83)"/><path class="cls-1" d="M201.59,245.6l1.85-1c9.55,13.42,13.11,30,22.2,43.71C215.53,275.32,211.25,258.94,201.59,245.6Z" transform="translate(-0.65 -0.83)"/><path class="cls-1" d="M198.74,247l1.89-.93c9.12,13.71,12.17,30.37,20.83,44.37C211.75,277.15,208,260.65,198.74,247Z" transform="translate(-0.65 -0.83)"/><path class="cls-1" d="M195.85,248.36l1.91-.88c8.7,14,11.23,30.73,19.44,45C207.92,278.87,204.66,262.26,195.85,248.36Z" transform="translate(-0.65 -0.83)"/><path class="cls-1" d="M192.91,249.6l1.93-.81c8.26,14.25,10.27,31.06,18,45.57C204,280.48,201.29,263.77,192.91,249.6Z" transform="translate(-0.65 -0.83)"/><path class="cls-1" d="M189.92,250.76l2-.76c7.81,14.5,9.29,31.37,16.6,46.12C200.06,282,197.85,265.18,189.92,250.76Z" transform="translate(-0.65 -0.83)"/><path class="cls-1" d="M186.89,251.82l2-.69c7.35,14.74,8.3,31.64,15.15,46.61C196,283.33,194.36,266.49,186.89,251.82Z" transform="translate(-0.65 -0.83)"/><path class="cls-1" d="M183.81,252.79l2-.63c6.88,15,7.3,31.89,13.67,47.07C192,284.57,190.82,267.68,183.81,252.79Z" transform="translate(-0.65 -0.83)"/><path class="cls-1" d="M180.7,253.66l2-.56c6.41,15.17,6.29,32.1,12.17,47.48C187.85,285.69,187.23,268.77,180.7,253.66Z" transform="translate(-0.65 -0.83)"/><path class="cls-1" d="M177.54,254.44l2-.5c5.92,15.37,5.27,32.29,10.66,47.84C183.67,286.68,183.6,269.75,177.54,254.44Z" transform="translate(-0.65 -0.83)"/><path class="cls-1" d="M174.35,255.12l2.05-.44c5.43,15.55,4.24,32.44,9.14,48.16C179.45,287.54,179.91,270.61,174.35,255.12Z" transform="translate(-0.65 -0.83)"/><path class="cls-1" d="M171.12,255.7l2.07-.37c4.92,15.72,3.2,32.56,7.59,48.43C175.18,288.26,176.18,271.36,171.12,255.7Z" transform="translate(-0.65 -0.83)"/><path class="cls-1" d="M167.85,256.18l2.08-.3c4.42,15.86,2.16,32.64,6,48.64C170.87,288.86,172.41,272,167.85,256.18Z" transform="translate(-0.65 -0.83)"/><path class="cls-1" d="M164.55,256.56l2.09-.24c3.91,16,1.1,32.7,4.47,48.81C166.52,289.32,168.6,272.51,164.55,256.56Z" transform="translate(-0.65 -0.83)"/><path class="cls-1" d="M161.21,256.83l2.1-.17c3.39,16.12.05,32.72,2.9,48.93C162.13,289.63,164.75,272.91,161.21,256.83Z" transform="translate(-0.65 -0.83)"/><path class="cls-1" d="M157.84,257l2.1-.1c2.88,16.21-1,32.7,1.32,49C157.7,289.81,160.86,273.18,157.84,257Z" transform="translate(-0.65 -0.83)"/><path class="cls-1" d="M154,257.06l2.1,0c2.35,16.3-2.05,32.65-.26,49C152.76,289.85,156.45,273.33,154,257.06Z" transform="translate(-0.65 -0.83)"/><path class="cls-1" d="M150.22,257l2.1,0c1.82,16.37-3.11,32.57-1.84,49C148,289.75,152.18,273.35,150.22,257Z" transform="translate(-0.65 -0.83)"/><path class="cls-1" d="M146.72,256.9l2.09.1c1.3,16.42-4.15,32.45-3.41,48.89C143.4,289.54,148.15,273.3,146.72,256.9Z" transform="translate(-0.65 -0.83)"/><path class="cls-1" d="M143.3,256.66l2.09.17c.76,16.45-5.2,32.3-5,48.76C138.94,289.19,144.21,273.1,143.3,256.66Z" transform="translate(-0.65 -0.83)"/><path class="cls-1" d="M139.92,256.32l2.09.24c.23,16.47-6.24,32.11-6.56,48.57C134.51,288.69,140.3,272.78,139.92,256.32Z" transform="translate(-0.65 -0.83)"/><path class="cls-1" d="M136.59,255.88l2.08.3c-.3,16.47-7.26,31.9-8.12,48.34C130.15,288.06,136.44,272.34,136.59,255.88Z" transform="translate(-0.65 -0.83)"/><path class="cls-1" d="M133.32,255.33l2.07.37c-.82,16.45-8.28,31.65-9.66,48.06C125.85,287.29,132.65,271.78,133.32,255.33Z" transform="translate(-0.65 -0.83)"/><path class="cls-1" d="M130.11,254.68l2,.44c-1.35,16.41-9.29,31.37-11.19,47.72C121.62,286.38,128.9,271.1,130.11,254.68Z" transform="translate(-0.65 -0.83)"/><path class="cls-1" d="M126.93,253.94l2,.5c-1.87,16.36-10.28,31.06-12.7,47.34C117.44,285.35,125.2,270.31,126.93,253.94Z" transform="translate(-0.65 -0.83)"/><path class="cls-1" d="M123.79,253.1l2,.56c-2.39,16.3-11.26,30.72-14.19,46.92C113.31,284.19,121.55,269.4,123.79,253.1Z" transform="translate(-0.65 -0.83)"/><path class="cls-1" d="M120.69,252.16l2,.63C119.8,269,110.47,283.13,107,299.23,109.23,282.91,117.94,268.39,120.69,252.16Z" transform="translate(-0.65 -0.83)"/><path class="cls-1" d="M117.64,251.13l2,.69c-3.41,16.11-13.17,29.94-17.12,45.92C105.22,281.5,114.37,267.26,117.64,251.13Z" transform="translate(-0.65 -0.83)"/><path class="cls-1" d="M114.63,250l2,.76c-3.91,16-14.11,29.51-18.56,45.36C101.26,280,110.86,266,114.63,250Z" transform="translate(-0.65 -0.83)"/><path class="cls-1" d="M111.67,248.79l1.93.81c-4.41,15.87-15,29.06-20,44.76C97.37,278.32,107.4,264.69,111.67,248.79Z" transform="translate(-0.65 -0.83)"/><path class="cls-1" d="M108.75,247.48l1.91.88c-4.9,15.72-15.92,28.58-21.35,44.12C93.54,276.56,104,263.24,108.75,247.48Z" transform="translate(-0.65 -0.83)"/><path class="cls-1" d="M105.89,246.09l1.88.93C102.38,262.59,91,275.1,85.05,290.46,89.77,274.68,100.63,261.69,105.89,246.09Z" transform="translate(-0.65 -0.83)"/><path class="cls-1" d="M103.07,244.61l1.85,1c-5.87,15.39-17.66,27.54-24,42.72C86.08,272.69,97.34,260.05,103.07,244.61Z" transform="translate(-0.65 -0.83)"/><path class="cls-1" d="M100.3,243.05l1.82,1c-6.34,15.2-18.5,27-25.35,42C82.46,270.59,94.1,258.3,100.3,243.05Z" transform="translate(-0.65 -0.83)"/><path class="cls-1" d="M97.59,241.41l1.79,1.1c-6.8,15-19.32,26.4-26.63,41.15C78.91,268.39,90.92,256.46,97.59,241.41Z" transform="translate(-0.65 -0.83)"/><path class="cls-1" d="M94.94,239.68l1.75,1.16c-7.26,14.78-20.12,25.79-27.88,40.31C75.44,266.08,87.81,254.52,94.94,239.68Z" transform="translate(-0.65 -0.83)"/><path class="cls-1" d="M92.34,237.88l1.72,1.21c-7.71,14.55-20.91,25.16-29.1,39.44C72,263.66,84.76,252.49,92.34,237.88Z" transform="translate(-0.65 -0.83)"/><path class="cls-1" d="M89.8,236l1.68,1.27c-8.15,14.31-21.66,24.51-30.29,38.53C68.72,261.15,81.78,250.37,89.8,236Z" transform="translate(-0.65 -0.83)"/><path class="cls-1" d="M87.33,234,89,235.35c-8.58,14.05-22.4,23.84-31.45,37.59C65.49,258.53,78.87,248.16,87.33,234Z" transform="translate(-0.65 -0.83)"/><path class="cls-1" d="M84.91,232l1.6,1.37c-9,13.78-23.12,23.15-32.58,36.62C62.34,255.83,76,245.86,84.91,232Z" transform="translate(-0.65 -0.83)"/><path class="cls-1" d="M82.56,229.9l1.56,1.41c-9.43,13.51-23.81,22.44-33.68,35.61C59.28,253,73.26,243.48,82.56,229.9Z" transform="translate(-0.65 -0.83)"/><path class="cls-1" d="M80.27,227.72l1.52,1.46C72,242.39,57.31,250.88,47,263.75,56.3,250.13,70.57,241,80.27,227.72Z" transform="translate(-0.65 -0.83)"/><path class="cls-1" d="M78.06,225.48l1.47,1.5c-10.23,12.91-25.13,21-35.78,33.5C53.41,247.15,68,238.47,78.06,225.48Z" transform="translate(-0.65 -0.83)"/><path class="cls-1" d="M75.91,223.17l1.42,1.54c-10.61,12.6-25.75,20.18-36.78,32.4C50.62,244.08,65.41,235.85,75.91,223.17Z" transform="translate(-0.65 -0.83)"/><path class="cls-1" d="M73.84,220.79l1.37,1.59c-11,12.26-26.35,19.38-37.75,31.27C47.92,240.92,63,233.15,73.84,220.79Z" transform="translate(-0.65 -0.83)"/><path class="cls-1" d="M71.83,218.35,73.16,220c-11.36,11.92-26.93,18.58-38.68,30.1C45.32,237.68,60.59,230.37,71.83,218.35Z" transform="translate(-0.65 -0.83)"/><path class="cls-1" d="M69.91,215.85l1.27,1.67C59.46,229.09,43.7,235.26,31.6,246.43,42.81,234.37,58.3,227.52,69.91,215.85Z" transform="translate(-0.65 -0.83)"/><path class="cls-1" d="M68.06,213.28,69.28,215c-12.06,11.21-28,16.9-40.44,27.7C40.41,231,56.1,224.6,68.06,213.28Z" transform="translate(-0.65 -0.83)"/><path class="cls-1" d="M66.28,210.67l1.17,1.74c-12.4,10.84-28.51,16-41.27,26.44C38.11,227.5,54,221.61,66.28,210.67Z" transform="translate(-0.65 -0.83)"/><path class="cls-1" d="M64.59,208l1.12,1.78c-12.73,10.45-29,15.15-42.06,25.17C35.92,224,52,218.55,64.59,208Z" transform="translate(-0.65 -0.83)"/><path class="cls-1" d="M63,205.26,64,207.07c-13,10.06-29.44,14.26-42.81,23.86C33.83,220.33,50,215.43,63,205.26Z" transform="translate(-0.65 -0.83)"/><path class="cls-1" d="M61.46,202.48l1,1.84C49.12,214,32.59,217.66,18.93,226.85,31.85,216.64,48.2,212.24,61.46,202.48Z" transform="translate(-0.65 -0.83)"/><path class="cls-1" d="M60,199.64l.94,1.88c-13.63,9.23-30.27,12.41-44.2,21.17C30,212.89,46.46,209,60,199.64Z" transform="translate(-0.65 -0.83)"/><path class="cls-1" d="M58.66,196.76l.89,1.9c-13.92,8.81-30.64,11.47-44.84,19.8C28.24,209.07,44.83,205.68,58.66,196.76Z" transform="translate(-0.65 -0.83)"/><path class="cls-1" d="M57.39,193.83l.83,1.93c-14.18,8.37-31,10.51-45.43,18.39C26.6,205.18,43.29,202.32,57.39,193.83Z" transform="translate(-0.65 -0.83)"/><path class="cls-1" d="M56.22,190.85l.77,2c-14.44,7.92-31.3,9.53-46,17C25.09,201.24,41.85,198.9,56.22,190.85Z" transform="translate(-0.65 -0.83)"/><path class="cls-1" d="M55.13,187.83l.71,2c-14.68,7.46-31.58,8.55-46.5,15.51C23.69,197.24,40.52,195.42,55.13,187.83Z" transform="translate(-0.65 -0.83)"/><path class="cls-1" d="M54.14,184.77l.64,2c-14.9,7-31.83,7.55-47,14C22.42,193.18,39.3,191.9,54.14,184.77Z" transform="translate(-0.65 -0.83)"/><path class="cls-1" d="M53.24,181.66l.58,2c-15.12,6.53-32,6.55-47.38,12.55C21.27,189.07,38.18,188.32,53.24,181.66Z" transform="translate(-0.65 -0.83)"/><path class="cls-1" d="M52.44,178.52l.52,2c-15.33,6-32.25,5.53-47.76,11C20.25,184.91,37.18,184.69,52.44,178.52Z" transform="translate(-0.65 -0.83)"/><path class="cls-1" d="M51.74,175.34l.45,2c-15.51,5.55-32.41,4.49-48.09,9.51C19.36,180.69,36.28,181,51.74,175.34Z" transform="translate(-0.65 -0.83)"/><path class="cls-1" d="M51.13,172.11l.39,2.07c-15.68,5-32.54,3.46-48.37,8C18.6,176.44,35.51,177.3,51.13,172.11Z" transform="translate(-0.65 -0.83)"/><path class="cls-1" d="M50.62,168.86l.32,2.07c-15.83,4.55-32.62,2.42-48.59,6.43C18,172.14,34.84,173.54,50.62,168.86Z" transform="translate(-0.65 -0.83)"/><path class="cls-1" d="M50.22,165.56l.25,2.09c-16,4-32.68,1.37-48.77,4.86C17.48,167.79,34.3,169.74,50.22,165.56Z" transform="translate(-0.65 -0.83)"/><path class="cls-1" d="M49.92,162.23l.19,2.1c-16.09,3.52-32.72.31-48.91,3.29C17.13,163.41,33.87,165.9,49.92,162.23Z" transform="translate(-0.65 -0.83)"/><path class="cls-1" d="M49.73,158.87l.12,2.1c-16.2,3-32.71-.74-49,1.72C16.91,159,33.57,162,49.73,158.87Z" transform="translate(-0.65 -0.83)"/><path class="cls-1" d="M49.64,155.15l0,2.1c-16.28,2.48-32.66-1.79-49,.13C16.84,154.21,33.39,157.77,49.64,155.15Z" transform="translate(-0.65 -0.83)"/><path class="cls-1" d="M49.66,151.26v2.1c-16.36,1.95-32.6-2.85-49-1.45C16.91,149.26,33.33,153.35,49.66,151.26Z" transform="translate(-0.65 -0.83)"/><path class="cls-1" d="M49.76,147.76l-.09,2.1c-16.41,1.42-32.48-3.89-48.92-3C17.08,144.71,33.37,149.33,49.76,147.76Z" transform="translate(-0.65 -0.83)"/><path class="cls-1" d="M50,144.33l-.15,2.1c-16.44.89-32.34-4.94-48.8-4.6C17.4,140.23,33.53,145.37,50,144.33Z" transform="translate(-0.65 -0.83)"/><path class="cls-1" d="M50.28,140.94,50.06,143c-16.47.37-32.17-6-48.63-6.16C17.87,135.8,33.82,141.46,50.28,140.94Z" transform="translate(-0.65 -0.83)"/><path class="cls-1" d="M50.7,137.6l-.29,2.08c-16.47-.16-32-7-48.4-7.73C18.47,131.41,34.23,137.58,50.7,137.6Z" transform="translate(-0.65 -0.83)"/><path class="cls-1" d="M51.22,134.32l-.36,2.07c-16.45-.69-31.71-8-48.13-9.28C19.2,127.1,34.76,133.77,51.22,134.32Z" transform="translate(-0.65 -0.83)"/><path class="cls-1" d="M51.84,131.09l-.42,2.06C35,131.93,20,124.11,3.61,122.34,20.07,122.86,35.41,130,51.84,131.09Z" transform="translate(-0.65 -0.83)"/><path class="cls-1" d="M52.56,127.9l-.48,2c-16.38-1.73-31.14-10-47.45-12.32C21.07,118.66,36.17,126.31,52.56,127.9Z" transform="translate(-0.65 -0.83)"/><path class="cls-1" d="M53.38,124.75l-.55,2c-16.32-2.26-30.81-11-47-13.82C22.2,114.52,37.05,122.64,53.38,124.75Z" transform="translate(-0.65 -0.83)"/><path class="cls-1" d="M54.29,121.65l-.61,2c-16.24-2.77-30.44-12-46.57-15.3C23.45,110.43,38,119,54.29,121.65Z" transform="translate(-0.65 -0.83)"/><path class="cls-1" d="M55.3,118.58l-.68,2c-16.13-3.28-30-12.94-46-16.77C24.83,106.4,39.14,115.44,55.3,118.58Z" transform="translate(-0.65 -0.83)"/><path class="cls-1" d="M56.4,115.56l-.74,2c-16-3.79-29.62-13.88-45.51-18.21C26.33,102.43,40.35,111.92,56.4,115.56Z" transform="translate(-0.65 -0.83)"/><path class="cls-1" d="M57.59,112.59l-.79,1.94c-15.91-4.29-29.18-14.8-44.92-19.62C28,98.52,41.66,108.44,57.59,112.59Z" transform="translate(-0.65 -0.83)"/><path class="cls-1" d="M58.88,109.66,58,111.58c-15.76-4.79-28.71-15.7-44.29-21C29.68,94.67,43.08,105,58.88,109.66Z" transform="translate(-0.65 -0.83)"/><path class="cls-1" d="M60.25,106.78l-.92,1.89c-15.61-5.27-28.2-16.59-43.61-22.38C31.53,90.89,44.6,101.65,60.25,106.78Z" transform="translate(-0.65 -0.83)"/><path class="cls-1" d="M61.7,104l-1,1.86c-15.44-5.75-27.68-17.45-42.9-23.72C33.49,87.18,46.23,98.34,61.7,104Z" transform="translate(-0.65 -0.83)"/><path class="cls-1" d="M63.24,101.17l-1,1.83C47,96.78,35.09,84.71,20.07,78,35.57,83.54,48,95.09,63.24,101.17Z" transform="translate(-0.65 -0.83)"/><path class="cls-1" d="M64.87,98.45l-1.09,1.8c-15.05-6.7-26.55-19.13-41.36-26.32C37.75,80,49.77,91.89,64.87,98.45Z" transform="translate(-0.65 -0.83)"/><path class="cls-1" d="M66.57,95.78l-1.14,1.76C50.59,90.39,39.48,77.61,24.9,70,40,76.48,51.68,88.77,66.57,95.78Z" transform="translate(-0.65 -0.83)"/><path class="cls-1" d="M68.36,93.17l-1.2,1.72C52.55,87.29,41.84,74.18,27.5,66.1,42.42,73.07,53.69,85.7,68.36,93.17Z" transform="translate(-0.65 -0.83)"/><path class="cls-1" d="M70.22,90.62,69,92.3c-14.37-8-24.68-21.47-38.76-30C44.91,69.73,55.78,82.7,70.22,90.62Z" transform="translate(-0.65 -0.83)"/><path class="cls-1" d="M72.16,88.12l-1.3,1.65C56.74,81.29,46.85,67.55,33,58.61,47.5,66.47,58,79.77,72.16,88.12Z" transform="translate(-0.65 -0.83)"/><path class="cls-1" d="M74.17,85.69,72.83,87.3C59,78.4,49.5,64.36,36,55,50.18,63.3,60.25,76.91,74.17,85.69Z" transform="translate(-0.65 -0.83)"/><path class="cls-1" d="M76.26,83.32l-1.4,1.57C61.29,75.57,52.24,61.25,39,51.48,53,60.22,62.61,74.13,76.26,83.32Z" transform="translate(-0.65 -0.83)"/><path class="cls-1" d="M78.42,81,77,82.55c-13.29-9.73-21.9-24.32-34.84-34.48C55.83,57.22,65.05,71.42,78.42,81Z" transform="translate(-0.65 -0.83)"/><path class="cls-1" d="M80.65,78.79l-1.49,1.48c-13-10.13-21.14-25-33.78-35.52C58.79,54.31,67.58,68.78,80.65,78.79Z" transform="translate(-0.65 -0.83)"/><path class="cls-1" d="M82.94,76.62l-1.53,1.44C68.73,67.54,61,52.46,48.73,41.53,61.84,51.49,70.18,66.22,82.94,76.62Z" transform="translate(-0.65 -0.83)"/><path class="cls-1" d="M85.3,74.53l-1.57,1.39C71.38,65,64.14,49.71,52.17,38.41,65,48.77,72.86,63.75,85.3,74.53Z" transform="translate(-0.65 -0.83)"/><path class="cls-1" d="M87.73,72.51l-1.62,1.34c-12-11.27-18.78-26.79-30.4-38.45C68.19,46.14,75.62,61.35,87.73,72.51Z" transform="translate(-0.65 -0.83)"/><path class="cls-1" d="M90.22,70.56l-1.66,1.29C76.89,60.22,70.6,44.5,59.34,32.49,71.49,43.61,78.46,59,90.22,70.56Z" transform="translate(-0.65 -0.83)"/><path class="cls-1" d="M92.76,68.69l-1.69,1.24C79.76,58,74,42.05,63.06,29.7,74.87,41.19,81.36,56.82,92.76,68.69Z" transform="translate(-0.65 -0.83)"/><path class="cls-1" d="M95.37,66.9l-1.74,1.19C82.7,55.77,77.38,39.7,66.87,27,78.32,38.86,84.33,54.69,95.37,66.9Z" transform="translate(-0.65 -0.83)"/><path class="cls-1" d="M98,65.19l-1.77,1.13C85.71,53.67,80.88,37.45,70.77,24.45,81.85,36.64,87.37,52.64,98,65.19Z" transform="translate(-0.65 -0.83)"/><path class="cls-1" d="M100.75,63.56l-1.81,1.08C88.79,51.67,84.46,35.3,74.75,22,85.45,34.53,90.48,50.69,100.75,63.56Z" transform="translate(-0.65 -0.83)"/><path class="cls-1" d="M103.52,62l-1.84,1C91.93,49.76,88.11,33.27,78.81,19.68,89.12,32.52,93.65,48.83,103.52,62Z" transform="translate(-0.65 -0.83)"/><path class="cls-1" d="M106.34,60.55l-1.87,1C95.13,48,91.82,31.34,83,17.47,92.86,30.63,96.88,47.07,106.34,60.55Z" transform="translate(-0.65 -0.83)"/><path class="cls-1" d="M109.21,59.17l-1.9.91C98.4,46.23,95.61,29.53,87.17,15.39,96.67,28.85,100.18,45.41,109.21,59.17Z" transform="translate(-0.65 -0.83)"/><path class="cls-1" d="M112.13,57.89l-1.93.84c-8.47-14.12-10.75-30.9-18.74-45.29C100.53,27.18,103.53,43.85,112.13,57.89Z" transform="translate(-0.65 -0.83)"/><path class="cls-1" d="M115.09,56.69l-2,.78c-8-14.38-9.78-31.22-17.32-45.85C104.46,25.64,106.94,42.39,115.09,56.69Z" transform="translate(-0.65 -0.83)"/><path class="cls-1" d="M118.1,55.58l-2,.72c-7.58-14.62-8.8-31.51-15.88-46.37C108.45,24.21,110.4,41,118.1,55.58Z" transform="translate(-0.65 -0.83)"/><path class="cls-1" d="M121.15,54.56l-2,.66c-7.11-14.85-7.8-31.77-14.41-46.85C112.49,22.91,113.91,39.78,121.15,54.56Z" transform="translate(-0.65 -0.83)"/><path class="cls-1" d="M124.25,53.64l-2,.6c-6.65-15.07-6.8-32-12.93-47.28C116.59,21.73,117.48,38.64,124.25,53.64Z" transform="translate(-0.65 -0.83)"/><path class="cls-1" d="M127.38,52.81l-2,.54c-6.16-15.28-5.78-32.2-11.42-47.67C120.74,20.68,121.09,37.6,127.38,52.81Z" transform="translate(-0.65 -0.83)"/><path class="cls-1" d="M130.56,52.09l-2.05.46c-5.67-15.46-4.75-32.37-9.9-48C124.94,19.75,124.75,36.68,130.56,52.09Z" transform="translate(-0.65 -0.83)"/><path class="cls-1" d="M133.77,51.45l-2.06.41c-5.18-15.64-3.72-32.51-8.36-48.3C129.19,19,128.46,35.87,133.77,51.45Z" transform="translate(-0.65 -0.83)"/><path class="cls-1" d="M137,50.92l-2.07.34c-4.68-15.79-2.68-32.61-6.82-48.54C133.48,18.3,132.21,35.18,137,50.92Z" transform="translate(-0.65 -0.83)"/><path class="cls-1" d="M140.3,50.49l-2.08.27C134.05,34.83,136.59,18.09,133,2,137.81,17.77,136,34.61,140.3,50.49Z" transform="translate(-0.65 -0.83)"/><path class="cls-1" d="M143.62,50.17l-2.09.2c-3.65-16.06-.58-32.71-3.68-48.88C142.18,17.38,139.83,34.15,143.62,50.17Z" transform="translate(-0.65 -0.83)"/><path class="cls-1" d="M147,50l-2.1.13c-3.13-16.16.47-32.71-2.11-49C146.59,17.13,143.7,33.82,147,50Z" transform="translate(-0.65 -0.83)"/><path class="cls-1" d="M150.54,49.84l-2.09.06c-2.62-16.26,1.52-32.68-.54-49C151.22,17,147.79,33.61,150.54,49.84Z" transform="translate(-0.65 -0.83)"/><path class="cls-1" d="M154.58,49.83h-2.1c-2.09-16.33,2.58-32.61,1.05-49C156.31,17.06,152.35,33.52,154.58,49.83Z" transform="translate(-0.65 -0.83)"/></svg>